<svg version="1.1" viewBox="0.0 0.0 768.0 768.0" fill="none" stroke="none" stroke-linecap="square" stroke-miterlimit="10" xmlns:xlink="http://www.w3.org/1999/xlink" xmlns="http://www.w3.org/2000/svg"><clipPath id="p.0"><path d="m0 0l768.0 0l0 768.0l-768.0 0l0 -768.0z" clip-rule="nonzero"/></clipPath><g clip-path="url(#p.0)"><path fill="#000000" fill-opacity="0.0" d="m0 0l768.0 0l0 768.0l-768.0 0z" fill-rule="evenodd"/><path fill="#000000" d="m12.0 384.0l0 0c0 -209.86821 166.55008 -380.0 372.0 -380.0l0 0c98.66052 0 193.28021 40.0356 263.0437 111.29942c69.76355 71.263824 108.9563 167.91832 108.9563 268.70056l0 0c0 209.86823 -166.55005 380.0 -372.0 380.0l0 0c-205.44992 0 -372.0 -170.13177 -372.0 -380.0z" fill-rule="evenodd"/><path stroke="#000000" stroke-width="1.0" stroke-linejoin="round" stroke-linecap="butt" d="m12.0 384.0l0 0c0 -209.86821 166.55008 -380.0 372.0 -380.0l0 0c98.66052 0 193.28021 40.0356 263.0437 111.29942c69.76355 71.263824 108.9563 167.91832 108.9563 268.70056l0 0c0 209.86823 -166.55005 380.0 -372.0 380.0l0 0c-205.44992 0 -372.0 -170.13177 -372.0 -380.0z" fill-rule="evenodd"/><path fill="#000000" fill-opacity="0.0" d="m73.71654 52.62992l620.5669 0l0 662.7401l-620.5669 0z" fill-rule="evenodd"/><path fill="#ffffff" d="m314.9391 195.03618l0 10.65625q-18.140625 0.546875 -27.484375 4.015625q-9.328125 3.453125 -12.53125 12.796875q-3.1875 9.328125 -3.1875 29.0625l0 273.0625q0 15.46875 2.390625 23.203125q2.40625 7.734375 8.796875 10.140625q6.40625 2.390625 19.203125 2.390625l21.875 0q21.328125 0 42.390625 -16.796875q21.078125 -16.796875 36.8125 -45.328156q15.734375 -28.546875 21.0625 -63.203125l12.265625 0q-1.59375 18.65625 -1.59375 48.0q0 13.328125 0.53125 38.12503q0.53125 24.796875 3.203125 51.46875q-27.203125 -1.0625 -61.34375 -1.328125q-34.125 -0.265625 -60.796875 -0.265625q-18.671875 0 -49.875 0q-31.187485 0 -65.85936 0.265625q-34.65625 0.265625 -64.53125 1.328125l0 -10.671875q16.53125 -1.0625 24.796875 -4.265625q8.265625 -3.203125 11.203125 -12.796875q2.9375 -9.59375 2.9375 -28.796875l0 -264.53125q0 -19.734375 -2.9375 -29.0625q-2.9375 -9.34375 -11.203125 -12.796875q-8.265625 -3.46875 -24.796875 -4.015625l0 -10.65625q14.40625 0.53125 38.40625 1.0625q24.0 0.53125 51.1875 0.53125q25.078125 0 49.07811 -0.53125q24.0 -0.53125 40.0 -1.0625zm119.46341 477.85938l0 -11.203125q20.265625 -2.125 34.921875 -12.265625q14.671875 -10.125 22.671875 -35.203125q8.0 -25.0625 8.0 -70.390625l0 -292.26562q0 -19.734375 -2.9375 -29.0625q-2.921875 -9.34375 -11.46875 -12.796875q-8.53125 -3.46875 -24.53125 -4.015625l0 -10.65625q13.34375 0.53125 36.265625 1.0625q22.93753 0.53125 48.00003 0.53125q25.609375 0 49.875 -0.53125q24.265625 -0.53125 40.265625 -1.0625l0 10.65625q-16.53125 0.546875 -25.0625 4.015625q-8.53125 3.453125 -11.203125 12.796875q-2.671875 9.328125 -2.671875 29.0625l0 195.20311q0 21.859375 0 47.203125q0 25.328156 -1.875 49.328156q-1.859375 24.0 -7.1875 42.65625q-11.203125 36.8125 -49.078125 61.875q-37.859406 25.0625 -103.984406 25.0625z" fill-rule="nonzero"/></g></svg>